<svg version="1.1" viewBox="0.0 0.0 961.6850393700787 219.79002624671915" fill="none" stroke="none"
     stroke-linecap="square" stroke-miterlimit="10"
     xmlns="http://www.w3.org/2000/svg">
    <clipPath id="p.0">
        <path d="m0 0l961.68506 0l0 219.79002l-961.68506 0l0 -219.79002z" clip-rule="nonzero"/>
    </clipPath>
    <g clip-path="url(#p.0)">
        <path fill="#000000" fill-opacity="0.0" d="m0 0l961.68506 0l0 219.79002l-961.68506 0z" fill-rule="evenodd"/>
        <path fill="#000000"
              d="m71.26374 80.66565c-1.5285339 0 -3.1103897 0.34748077 -4.74559 1.04245l-57.826805 24.906197c-2.7371364 1.1645355 -4.869983 2.958313 -6.3985405 5.3813095c-1.5285575 2.4230042 -2.2928104 5.1371384 -2.2928104 8.14241c0 3.1179657 0.7642527 5.860283 2.2928104 8.226929c1.5285573 2.3478851 3.6614041 4.160446 6.3985405 5.437668l57.826805 24.934372c1.6351776 0.69496155 3.1637115 1.04245 4.5856247 1.04245c2.506096 0 4.603401 -0.8921814 6.291893 -2.6765747c1.6884995 -1.8031616 2.5327606 -4.0852814 2.5327606 -6.8463745c0 -1.6153412 -0.4087906 -3.0898132 -1.226387 -4.4233856c-0.81760406 -1.3336029 -1.9906693 -2.3384857 -3.5191956 -3.0146637l-53.56112 -22.68042l53.56112 -22.680412c3.1637268 -1.5026321 4.7455826 -3.9819794 4.7455826 -7.4380493c0 -2.7798767 -0.81760406 -5.0338287 -2.452774 -6.7618637c-1.6351776 -1.7280273 -3.7058258 -2.592041 -6.211914 -2.592041z"
              fill-rule="evenodd"/>
        <path fill="#000000"
              d="m274.362 102.47266c5.7942505 0 10.246582 2.019165 13.356964 6.057495c3.110382 4.0383377 4.6655884 10.152184 4.6655884 18.341553c0 16.28482 -6.0075073 24.42723 -18.022552 24.42723c-12.015045 0 -18.022552 -8.14241 -18.022552 -24.42723c0 -16.26603 6.0075073 -24.399048 18.022552 -24.399048zm75.68808 -43.44497c-3.82135 0 -6.851776 1.0988007 -9.091248 3.2964058c-2.239502 2.1788216 -3.359253 5.1747017 -3.359253 8.987644l0 13.495552l-6.558502 0c-3.6080627 0 -6.336334 0.8358383 -8.184784 2.5075226c-1.8484802 1.6716766 -2.772705 4.1322403 -2.772705 7.3816986c0 3.0991898 0.92422485 5.494011 2.772705 7.1844788c1.8484497 1.6716843 4.576721 2.5075226 8.184784 2.5075226l6.558502 0l0 34.26011c0 19.496704 9.553406 30.05272 28.660126 31.668045l4.5856323 0.36627197c0.76782227 0.05531311 1.5063782 0.08299255 2.2156677 0.08299255c3.6252441 0 6.4858704 -0.722641 8.581879 -2.1678925c2.5238647 -1.7280426 3.785797 -4.263733 3.785797 -7.6071014c0 -2.8925629 -0.7642822 -5.0901794 -2.2928162 -6.592819c-1.5285339 -1.5026398 -3.9279785 -2.3666534 -7.1983643 -2.592041l-4.585602 -0.338089c-2.9504395 -0.2441864 -5.1899414 -1.2584534 -6.7184753 -3.0428467c-1.5285339 -1.784378 -2.2928162 -4.404602 -2.2928162 -7.8606567l0 -36.175972l11.46405 0c3.7147217 0 6.4963074 -0.8358383 8.344757 -2.5075226c1.8662415 -1.6904678 2.7993774 -4.085289 2.7993774 -7.1844788c0 -6.592819 -3.7147217 -9.889221 -11.1441345 -9.889221l-11.46405 0l0 -13.495552c0 -3.8129349 -1.0930786 -6.808815 -3.2792358 -8.987644c-2.1861877 -2.1976051 -5.1899414 -3.2964058 -9.0112915 -3.2964058zm-75.68808 23.72287c-8.513611 0 -15.996338 1.784378 -22.448196 5.353134c-6.434082 3.5687637 -11.401825 8.677727 -14.903275 15.326889c-3.4836578 6.6303864 -5.225464 14.444092 -5.225464 23.441124c0 9.015823 1.741806 16.838913 5.225464 23.4693c3.501419 6.6303864 8.469162 11.767532 14.903275 15.411407c6.4518585 3.6251068 13.934586 5.437668 22.448196 5.437668c8.531403 0 16.01413 -1.812561 22.448212 -5.437668c6.451874 -3.6438904 11.419647 -8.781036 14.90329 -15.411407c3.5014038 -6.6303864 5.252136 -14.453476 5.252136 -23.4693c0 -8.997032 -1.7507324 -16.810738 -5.252136 -23.441124c-3.4836426 -6.6491623 -8.451416 -11.758125 -14.90329 -15.326889c-6.434082 -3.568756 -13.916809 -5.353134 -22.448212 -5.353134z"
              fill-rule="evenodd"/>
        <path fill="#000000"
              d="m443.68283 83.050735c-0.34954834 0 -0.70773315 0.012634277 -1.0744934 0.03791046l-2.2928162 0.1690445c-4.710022 0.33809662 -9.055695 1.8407288 -13.037018 4.5079117c-3.9813232 2.6483994 -6.9584045 6.4519424 -8.931305 11.410645l0 -4.676956c0 -3.5687637 -1.0930786 -6.358032 -3.2792358 -8.3678055c-2.1861877 -2.0285568 -4.9144287 -3.042839 -8.184814 -3.042839c-3.3770142 0 -6.274109 1.0424576 -8.691345 3.127365c-2.3994446 2.0661163 -3.5991821 5.0056458 -3.5991821 8.818596l0 63.533325c0 4.0383453 1.1730652 7.0999603 3.5191956 9.1848755c2.363922 2.0661163 5.3410034 3.0991821 8.931305 3.0991821c3.5014343 0 6.4252014 -1.0330658 8.771332 -3.0991821c2.3461304 -2.0849152 3.5191956 -5.14653 3.5191956 -9.1848755l0 -33.076775c0 -5.4282684 1.3330383 -9.870438 3.9990845 -13.3265c2.683838 -3.45607 7.0295105 -5.5315857 13.037018 -6.2265472l4.905548 -0.53531647c4.479004 -0.4507904 7.589386 -1.5965576 9.331207 -3.4372787c1.759613 -1.8595123 2.6394043 -4.6957397 2.6394043 -8.508682c0 -3.5687637 -0.95977783 -6.245331 -2.8793335 -8.029709c-1.6885071 -1.584259 -3.9164124 -2.3763885 -6.6837463 -2.3763885z"
              fill-rule="evenodd"/>
        <path fill="#000000"
              d="m515.3316 46.20832c-11.357422 0 -21.301819 2.5450935 -29.83319 7.635269c-8.513641 5.0713997 -15.063232 12.312225 -19.648865 21.722488c-4.5856323 9.391472 -6.878418 20.435844 -6.878418 33.133125c0 12.697266 2.2927856 23.77922 6.878418 33.24582c4.5856323 9.466614 11.135223 16.735611 19.648865 21.807007c8.531372 5.071396 18.475769 7.6071014 29.83319 7.6071014c14.307861 0 26.642822 -4.1510468 37.004883 -12.4530945c1.5285645 -1.2772522 2.6482544 -2.6296234 3.359253 -4.057129c0.7109375 -1.4462891 1.0664062 -3.2118835 1.0664062 -5.2967834c0 -3.0052643 -0.7909546 -5.5691376 -2.3728027 -7.69162c-1.5818481 -2.1412659 -3.519165 -3.2118835 -5.8120117 -3.2118835c-1.421875 0 -2.683838 0.20661926 -3.7857666 0.6198273c-1.0842285 0.39445496 -2.4439087 1.1082001 -4.0791016 2.1412659c-4.798889 3.0052643 -9.00238 5.174698 -12.610474 6.5082855c-3.6080322 1.3148041 -7.4293823 1.9722137 -11.46405 1.9722137c-21.07962 0 -31.619446 -13.730347 -31.619446 -41.19101c0 -13.617638 2.648285 -23.854347 7.9448547 -30.710129c5.29657 -6.8745575 13.18811 -10.311836 23.674591 -10.311836c4.265686 0 8.247009 0.6667938 11.94397 2.0003815c3.7147217 1.3148117 7.7582397 3.4748535 12.130554 6.480118c1.421875 1.0330658 2.7015991 1.7562103 3.8391113 2.1694336c1.1553345 0.3944397 2.4971924 0.59165955 4.025757 0.59165955c2.2928467 0 4.2301636 -1.0612411 5.8120117 -3.1837082c1.5818481 -2.1412582 2.3728027 -4.7145233 2.3728027 -7.719795c0 -2.066124 -0.3287964 -3.7941513 -0.9864502 -5.1840935c-0.6576538 -1.3899345 -1.8040161 -2.770485 -3.439209 -4.1416397c-10.362061 -8.32085 -22.697021 -12.481274 -37.004883 -12.481274z"
              fill-rule="evenodd"/>
        <path fill="#000000"
              d="m620.4258 83.050735c-0.34954834 0 -0.70770264 0.012634277 -1.0744629 0.03791046l-2.2928467 0.1690445c-4.710022 0.33809662 -9.055664 1.8407288 -13.036987 4.5079117c-3.9813232 2.6483994 -6.958435 6.4519424 -8.931335 11.410645l0 -4.676956c0 -3.5687637 -1.0930786 -6.358032 -3.2792358 -8.3678055c-2.1861572 -2.0285568 -4.9144287 -3.042839 -8.184814 -3.042839c-3.3770142 0 -6.274109 1.0424576 -8.691345 3.127365c-2.399414 2.0661163 -3.5991821 5.0056458 -3.5991821 8.818596l0 63.533325c0 4.0383453 1.1730957 7.0999603 3.519226 9.1848755c2.3638916 2.0661163 5.3410034 3.0991821 8.931274 3.0991821c3.5014038 0 6.425232 -1.0330658 8.771362 -3.0991821c2.3461304 -2.0849152 3.519165 -5.14653 3.519165 -9.1848755l0 -33.076775c0 -5.4282684 1.3330688 -9.870438 3.9990845 -13.3265c2.683838 -3.45607 7.029541 -5.5315857 13.037048 -6.2265472l4.9055176 -0.53531647c4.479004 -0.4507904 7.5894165 -1.5965576 9.331238 -3.4372787c1.7595825 -1.8595123 2.6394043 -4.6957397 2.6394043 -8.508682c0 -3.5687637 -0.95977783 -6.245331 -2.8793335 -8.029709c-1.6885376 -1.584259 -3.9164429 -2.3763885 -6.683777 -2.3763885z"
              fill-rule="evenodd"/>
        <path fill="#000000"
              d="m647.50653 83.25769c-3.2703247 0 -6.194092 1.0988083 -8.771301 3.2964096c-2.5594482 2.1788177 -3.8391724 4.892952 -3.8391724 8.14241c0 1.4838562 0.32885742 3.0334473 0.9864502 4.648781l26.687256 63.702377c0.9953613 2.5544739 2.5860596 4.49852 4.772278 5.8321075c2.1861572 1.3148041 4.5322876 1.9722137 7.038391 1.9722137c2.612732 0 4.9588623 -0.65740967 7.038391 -1.9722137c2.0795288 -1.3335876 3.6080322 -3.2776337 4.5856323 -5.8321075l16.876099 -43.078697l17.516052 43.078697c0.9953003 2.5544739 2.550476 4.49852 4.6655884 5.8321075c2.1328125 1.3148041 4.4611816 1.9722137 6.9850464 1.9722137c2.399475 0 4.6834106 -0.65740967 6.8518066 -1.9722137c2.1861572 -1.3335876 3.7769165 -3.2776337 4.772217 -5.8321075l26.847229 -63.702377c0.6575928 -1.7280273 0.9864502 -3.277626 0.9864502 -4.648781c0 -3.2494507 -1.1997681 -5.963585 -3.5991821 -8.14241c-2.399475 -2.1976013 -5.1277466 -3.2964096 -8.184814 -3.2964096c-1.9729004 0 -3.8302612 0.6386261 -5.5720825 1.915863c-1.7418213 1.258461 -3.1103516 3.0991898 -4.105713 5.5221863l-17.356018 46.572327l-18.182556 -46.23423c-0.97753906 -2.535698 -2.4527588 -4.4327774 -4.425659 -5.6912384c-1.9550781 -1.2772369 -4.0790405 -1.9158554 -6.371887 -1.9158554c-2.2927856 0 -4.398987 0.6667938 -6.3185425 2.0003815c-1.9017944 1.3148117 -3.3503418 3.1837082 -4.345642 5.6067123l-17.835938 46.23423l-17.542664 -46.572327c-0.9776001 -2.4229965 -2.3728027 -4.2637253 -4.18573 -5.5221863c-1.795166 -1.2772369 -3.7858276 -1.915863 -5.971985 -1.915863z"
              fill-rule="evenodd"/>
        <path fill="#000000"
              d="m820.4758 102.6417c5.7942505 0 10.246521 2.0755157 13.356934 6.2265472c3.1104126 4.1510315 4.6656494 10.152184 4.6656494 18.003456c0 7.8512726 -1.5552368 13.889999 -4.6656494 18.116165c-3.1104126 4.207382 -7.562683 6.3110657 -13.356934 6.3110657c-5.7764893 0 -10.255432 -2.1600342 -13.436951 -6.480118c-3.1636963 -4.338867 -4.7455444 -10.433929 -4.7455444 -18.285202c0 -7.738579 1.5818481 -13.655212 4.7455444 -17.749893c3.1815186 -4.094681 7.6604614 -6.142021 13.436951 -6.142021zm29.83319 -55.72902c-3.6080322 0 -6.505188 1.0424538 -8.691345 3.1273613c-2.1861572 2.0661278 -3.2792358 4.827221 -3.2792358 8.283283l0 38.26087c-2.399475 -4.3764267 -5.8120117 -7.776146 -10.237671 -10.199142c-4.425659 -2.4230042 -9.36676 -3.6344986 -14.823303 -3.6344986c-6.9850464 0 -13.152527 1.784378 -18.502441 5.353134c-5.3499146 3.5687637 -9.526733 8.677727 -12.530457 15.326889c-3.0037842 6.6303864 -4.5056763 14.33139 -4.5056763 23.103035c0 8.771637 1.5018921 16.538391 4.5056763 23.300247c3.0037231 6.743088 7.2072754 11.99292 12.610413 15.749512c5.4032593 3.737793 11.544067 5.6067047 18.422485 5.6067047c5.5631714 0 10.557617 -1.2396698 14.983276 -3.7190247c4.425659 -2.4793549 7.838196 -5.916626 10.237671 -10.311844l0 1.4087219c0 3.6814575 1.11969 6.64917 3.359192 8.903122c2.239502 2.253952 5.216614 3.3809357 8.931335 3.3809357c3.7146606 0 6.6917725 -1.1269836 8.931274 -3.3809357c2.239502 -2.253952 3.359253 -5.2216644 3.359253 -8.903122l0 -99.70929c0 -3.5875435 -1.1730957 -6.47073 -3.519226 -8.649548c-2.3461304 -2.1976051 -5.4298706 -3.2964096 -9.251221 -3.2964096z"
              fill-rule="evenodd"/>
        <path fill="#000000"
              d="m890.44037 80.66565c-2.5238647 0 -4.6033936 0.8640137 -6.2385254 2.592041c-1.6351929 1.728035 -2.4528198 3.981987 -2.4528198 6.7618637c0 3.45607 1.5818481 5.935417 4.7456055 7.4380493l53.561096 22.680412l-53.561096 22.68042c-1.5285645 0.676178 -2.7015991 1.6810608 -3.519226 3.0146637c-0.8175659 1.3335876 -1.2263794 2.8080597 -1.2263794 4.4233856c0 2.7610931 0.8442993 5.043213 2.5327759 6.8463745c1.7062988 1.7843933 3.812439 2.6765747 6.3185425 2.6765747c1.421875 0 2.9504395 -0.3474884 4.5856323 -1.04245l57.826782 -24.934372c2.7194214 -1.2772369 4.8433228 -3.089798 6.371887 -5.437668c1.5285645 -2.3666458 2.2928467 -5.108963 2.2928467 -8.226929c0 -3.005272 -0.7642822 -5.719406 -2.2928467 -8.14241c-1.5285645 -2.4229965 -3.6524658 -4.216774 -6.371887 -5.3813095l-57.826782 -24.906197c-1.6351929 -0.6949692 -3.217041 -1.04245 -4.7456055 -1.04245z"
              fill-rule="evenodd"/>
        <path stroke="#000000" stroke-width="1.0" stroke-linejoin="round" stroke-linecap="butt"
              d="m71.26374 80.66565c-1.5285339 0 -3.1103897 0.34748077 -4.74559 1.04245l-57.826805 24.906197c-2.7371364 1.1645355 -4.869983 2.958313 -6.3985405 5.3813095c-1.5285575 2.4230042 -2.2928104 5.1371384 -2.2928104 8.14241c0 3.1179657 0.7642527 5.860283 2.2928104 8.226929c1.5285573 2.3478851 3.6614041 4.160446 6.3985405 5.437668l57.826805 24.934372c1.6351776 0.69496155 3.1637115 1.04245 4.5856247 1.04245c2.506096 0 4.603401 -0.8921814 6.291893 -2.6765747c1.6884995 -1.8031616 2.5327606 -4.0852814 2.5327606 -6.8463745c0 -1.6153412 -0.4087906 -3.0898132 -1.226387 -4.4233856c-0.81760406 -1.3336029 -1.9906693 -2.3384857 -3.5191956 -3.0146637l-53.56112 -22.68042l53.56112 -22.680412c3.1637268 -1.5026321 4.7455826 -3.9819794 4.7455826 -7.4380493c0 -2.7798767 -0.81760406 -5.0338287 -2.452774 -6.7618637c-1.6351776 -1.7280273 -3.7058258 -2.592041 -6.211914 -2.592041z"
              fill-rule="evenodd"/>
        <path stroke="#000000" stroke-width="1.0" stroke-linejoin="round" stroke-linecap="butt"
              d="m274.362 102.47266c5.7942505 0 10.246582 2.019165 13.356964 6.057495c3.110382 4.0383377 4.6655884 10.152184 4.6655884 18.341553c0 16.28482 -6.0075073 24.42723 -18.022552 24.42723c-12.015045 0 -18.022552 -8.14241 -18.022552 -24.42723c0 -16.26603 6.0075073 -24.399048 18.022552 -24.399048zm75.68808 -43.44497c-3.82135 0 -6.851776 1.0988007 -9.091248 3.2964058c-2.239502 2.1788216 -3.359253 5.1747017 -3.359253 8.987644l0 13.495552l-6.558502 0c-3.6080627 0 -6.336334 0.8358383 -8.184784 2.5075226c-1.8484802 1.6716766 -2.772705 4.1322403 -2.772705 7.3816986c0 3.0991898 0.92422485 5.494011 2.772705 7.1844788c1.8484497 1.6716843 4.576721 2.5075226 8.184784 2.5075226l6.558502 0l0 34.26011c0 19.496704 9.553406 30.05272 28.660126 31.668045l4.5856323 0.36627197c0.76782227 0.05531311 1.5063782 0.08299255 2.2156677 0.08299255c3.6252441 0 6.4858704 -0.722641 8.581879 -2.1678925c2.5238647 -1.7280426 3.785797 -4.263733 3.785797 -7.6071014c0 -2.8925629 -0.7642822 -5.0901794 -2.2928162 -6.592819c-1.5285339 -1.5026398 -3.9279785 -2.3666534 -7.1983643 -2.592041l-4.585602 -0.338089c-2.9504395 -0.2441864 -5.1899414 -1.2584534 -6.7184753 -3.0428467c-1.5285339 -1.784378 -2.2928162 -4.404602 -2.2928162 -7.8606567l0 -36.175972l11.46405 0c3.7147217 0 6.4963074 -0.8358383 8.344757 -2.5075226c1.8662415 -1.6904678 2.7993774 -4.085289 2.7993774 -7.1844788c0 -6.592819 -3.7147217 -9.889221 -11.1441345 -9.889221l-11.46405 0l0 -13.495552c0 -3.8129349 -1.0930786 -6.808815 -3.2792358 -8.987644c-2.1861877 -2.1976051 -5.1899414 -3.2964058 -9.0112915 -3.2964058zm-75.68808 23.72287c-8.513611 0 -15.996338 1.784378 -22.448196 5.353134c-6.434082 3.5687637 -11.401825 8.677727 -14.903275 15.326889c-3.4836578 6.6303864 -5.225464 14.444092 -5.225464 23.441124c0 9.015823 1.741806 16.838913 5.225464 23.4693c3.501419 6.6303864 8.469162 11.767532 14.903275 15.411407c6.4518585 3.6251068 13.934586 5.437668 22.448196 5.437668c8.531403 0 16.01413 -1.812561 22.448212 -5.437668c6.451874 -3.6438904 11.419647 -8.781036 14.90329 -15.411407c3.5014038 -6.6303864 5.252136 -14.453476 5.252136 -23.4693c0 -8.997032 -1.7507324 -16.810738 -5.252136 -23.441124c-3.4836426 -6.6491623 -8.451416 -11.758125 -14.90329 -15.326889c-6.434082 -3.568756 -13.916809 -5.353134 -22.448212 -5.353134z"
              fill-rule="evenodd"/>
        <path stroke="#000000" stroke-width="1.0" stroke-linejoin="round" stroke-linecap="butt"
              d="m443.68283 83.050735c-0.34954834 0 -0.70773315 0.012634277 -1.0744934 0.03791046l-2.2928162 0.1690445c-4.710022 0.33809662 -9.055695 1.8407288 -13.037018 4.5079117c-3.9813232 2.6483994 -6.9584045 6.4519424 -8.931305 11.410645l0 -4.676956c0 -3.5687637 -1.0930786 -6.358032 -3.2792358 -8.3678055c-2.1861877 -2.0285568 -4.9144287 -3.042839 -8.184814 -3.042839c-3.3770142 0 -6.274109 1.0424576 -8.691345 3.127365c-2.3994446 2.0661163 -3.5991821 5.0056458 -3.5991821 8.818596l0 63.533325c0 4.0383453 1.1730652 7.0999603 3.5191956 9.1848755c2.363922 2.0661163 5.3410034 3.0991821 8.931305 3.0991821c3.5014343 0 6.4252014 -1.0330658 8.771332 -3.0991821c2.3461304 -2.0849152 3.5191956 -5.14653 3.5191956 -9.1848755l0 -33.076775c0 -5.4282684 1.3330383 -9.870438 3.9990845 -13.3265c2.683838 -3.45607 7.0295105 -5.5315857 13.037018 -6.2265472l4.905548 -0.53531647c4.479004 -0.4507904 7.589386 -1.5965576 9.331207 -3.4372787c1.759613 -1.8595123 2.6394043 -4.6957397 2.6394043 -8.508682c0 -3.5687637 -0.95977783 -6.245331 -2.8793335 -8.029709c-1.6885071 -1.584259 -3.9164124 -2.3763885 -6.6837463 -2.3763885z"
              fill-rule="evenodd"/>
        <path stroke="#000000" stroke-width="1.0" stroke-linejoin="round" stroke-linecap="butt"
              d="m515.3316 46.20832c-11.357422 0 -21.301819 2.5450935 -29.83319 7.635269c-8.513641 5.0713997 -15.063232 12.312225 -19.648865 21.722488c-4.5856323 9.391472 -6.878418 20.435844 -6.878418 33.133125c0 12.697266 2.2927856 23.77922 6.878418 33.24582c4.5856323 9.466614 11.135223 16.735611 19.648865 21.807007c8.531372 5.071396 18.475769 7.6071014 29.83319 7.6071014c14.307861 0 26.642822 -4.1510468 37.004883 -12.4530945c1.5285645 -1.2772522 2.6482544 -2.6296234 3.359253 -4.057129c0.7109375 -1.4462891 1.0664062 -3.2118835 1.0664062 -5.2967834c0 -3.0052643 -0.7909546 -5.5691376 -2.3728027 -7.69162c-1.5818481 -2.1412659 -3.519165 -3.2118835 -5.8120117 -3.2118835c-1.421875 0 -2.683838 0.20661926 -3.7857666 0.6198273c-1.0842285 0.39445496 -2.4439087 1.1082001 -4.0791016 2.1412659c-4.798889 3.0052643 -9.00238 5.174698 -12.610474 6.5082855c-3.6080322 1.3148041 -7.4293823 1.9722137 -11.46405 1.9722137c-21.07962 0 -31.619446 -13.730347 -31.619446 -41.19101c0 -13.617638 2.648285 -23.854347 7.9448547 -30.710129c5.29657 -6.8745575 13.18811 -10.311836 23.674591 -10.311836c4.265686 0 8.247009 0.6667938 11.94397 2.0003815c3.7147217 1.3148117 7.7582397 3.4748535 12.130554 6.480118c1.421875 1.0330658 2.7015991 1.7562103 3.8391113 2.1694336c1.1553345 0.3944397 2.4971924 0.59165955 4.025757 0.59165955c2.2928467 0 4.2301636 -1.0612411 5.8120117 -3.1837082c1.5818481 -2.1412582 2.3728027 -4.7145233 2.3728027 -7.719795c0 -2.066124 -0.3287964 -3.7941513 -0.9864502 -5.1840935c-0.6576538 -1.3899345 -1.8040161 -2.770485 -3.439209 -4.1416397c-10.362061 -8.32085 -22.697021 -12.481274 -37.004883 -12.481274z"
              fill-rule="evenodd"/>
        <path stroke="#000000" stroke-width="1.0" stroke-linejoin="round" stroke-linecap="butt"
              d="m620.4258 83.050735c-0.34954834 0 -0.70770264 0.012634277 -1.0744629 0.03791046l-2.2928467 0.1690445c-4.710022 0.33809662 -9.055664 1.8407288 -13.036987 4.5079117c-3.9813232 2.6483994 -6.958435 6.4519424 -8.931335 11.410645l0 -4.676956c0 -3.5687637 -1.0930786 -6.358032 -3.2792358 -8.3678055c-2.1861572 -2.0285568 -4.9144287 -3.042839 -8.184814 -3.042839c-3.3770142 0 -6.274109 1.0424576 -8.691345 3.127365c-2.399414 2.0661163 -3.5991821 5.0056458 -3.5991821 8.818596l0 63.533325c0 4.0383453 1.1730957 7.0999603 3.519226 9.1848755c2.3638916 2.0661163 5.3410034 3.0991821 8.931274 3.0991821c3.5014038 0 6.425232 -1.0330658 8.771362 -3.0991821c2.3461304 -2.0849152 3.519165 -5.14653 3.519165 -9.1848755l0 -33.076775c0 -5.4282684 1.3330688 -9.870438 3.9990845 -13.3265c2.683838 -3.45607 7.029541 -5.5315857 13.037048 -6.2265472l4.9055176 -0.53531647c4.479004 -0.4507904 7.5894165 -1.5965576 9.331238 -3.4372787c1.7595825 -1.8595123 2.6394043 -4.6957397 2.6394043 -8.508682c0 -3.5687637 -0.95977783 -6.245331 -2.8793335 -8.029709c-1.6885376 -1.584259 -3.9164429 -2.3763885 -6.683777 -2.3763885z"
              fill-rule="evenodd"/>
        <path stroke="#000000" stroke-width="1.0" stroke-linejoin="round" stroke-linecap="butt"
              d="m647.50653 83.25769c-3.2703247 0 -6.194092 1.0988083 -8.771301 3.2964096c-2.5594482 2.1788177 -3.8391724 4.892952 -3.8391724 8.14241c0 1.4838562 0.32885742 3.0334473 0.9864502 4.648781l26.687256 63.702377c0.9953613 2.5544739 2.5860596 4.49852 4.772278 5.8321075c2.1861572 1.3148041 4.5322876 1.9722137 7.038391 1.9722137c2.612732 0 4.9588623 -0.65740967 7.038391 -1.9722137c2.0795288 -1.3335876 3.6080322 -3.2776337 4.5856323 -5.8321075l16.876099 -43.078697l17.516052 43.078697c0.9953003 2.5544739 2.550476 4.49852 4.6655884 5.8321075c2.1328125 1.3148041 4.4611816 1.9722137 6.9850464 1.9722137c2.399475 0 4.6834106 -0.65740967 6.8518066 -1.9722137c2.1861572 -1.3335876 3.7769165 -3.2776337 4.772217 -5.8321075l26.847229 -63.702377c0.6575928 -1.7280273 0.9864502 -3.277626 0.9864502 -4.648781c0 -3.2494507 -1.1997681 -5.963585 -3.5991821 -8.14241c-2.399475 -2.1976013 -5.1277466 -3.2964096 -8.184814 -3.2964096c-1.9729004 0 -3.8302612 0.6386261 -5.5720825 1.915863c-1.7418213 1.258461 -3.1103516 3.0991898 -4.105713 5.5221863l-17.356018 46.572327l-18.182556 -46.23423c-0.97753906 -2.535698 -2.4527588 -4.4327774 -4.425659 -5.6912384c-1.9550781 -1.2772369 -4.0790405 -1.9158554 -6.371887 -1.9158554c-2.2927856 0 -4.398987 0.6667938 -6.3185425 2.0003815c-1.9017944 1.3148117 -3.3503418 3.1837082 -4.345642 5.6067123l-17.835938 46.23423l-17.542664 -46.572327c-0.9776001 -2.4229965 -2.3728027 -4.2637253 -4.18573 -5.5221863c-1.795166 -1.2772369 -3.7858276 -1.915863 -5.971985 -1.915863z"
              fill-rule="evenodd"/>
        <path stroke="#000000" stroke-width="1.0" stroke-linejoin="round" stroke-linecap="butt"
              d="m820.4758 102.6417c5.7942505 0 10.246521 2.0755157 13.356934 6.2265472c3.1104126 4.1510315 4.6656494 10.152184 4.6656494 18.003456c0 7.8512726 -1.5552368 13.889999 -4.6656494 18.116165c-3.1104126 4.207382 -7.562683 6.3110657 -13.356934 6.3110657c-5.7764893 0 -10.255432 -2.1600342 -13.436951 -6.480118c-3.1636963 -4.338867 -4.7455444 -10.433929 -4.7455444 -18.285202c0 -7.738579 1.5818481 -13.655212 4.7455444 -17.749893c3.1815186 -4.094681 7.6604614 -6.142021 13.436951 -6.142021zm29.83319 -55.72902c-3.6080322 0 -6.505188 1.0424538 -8.691345 3.1273613c-2.1861572 2.0661278 -3.2792358 4.827221 -3.2792358 8.283283l0 38.26087c-2.399475 -4.3764267 -5.8120117 -7.776146 -10.237671 -10.199142c-4.425659 -2.4230042 -9.36676 -3.6344986 -14.823303 -3.6344986c-6.9850464 0 -13.152527 1.784378 -18.502441 5.353134c-5.3499146 3.5687637 -9.526733 8.677727 -12.530457 15.326889c-3.0037842 6.6303864 -4.5056763 14.33139 -4.5056763 23.103035c0 8.771637 1.5018921 16.538391 4.5056763 23.300247c3.0037231 6.743088 7.2072754 11.99292 12.610413 15.749512c5.4032593 3.737793 11.544067 5.6067047 18.422485 5.6067047c5.5631714 0 10.557617 -1.2396698 14.983276 -3.7190247c4.425659 -2.4793549 7.838196 -5.916626 10.237671 -10.311844l0 1.4087219c0 3.6814575 1.11969 6.64917 3.359192 8.903122c2.239502 2.253952 5.216614 3.3809357 8.931335 3.3809357c3.7146606 0 6.6917725 -1.1269836 8.931274 -3.3809357c2.239502 -2.253952 3.359253 -5.2216644 3.359253 -8.903122l0 -99.70929c0 -3.5875435 -1.1730957 -6.47073 -3.519226 -8.649548c-2.3461304 -2.1976051 -5.4298706 -3.2964096 -9.251221 -3.2964096z"
              fill-rule="evenodd"/>
        <path stroke="#000000" stroke-width="1.0" stroke-linejoin="round" stroke-linecap="butt"
              d="m890.44037 80.66565c-2.5238647 0 -4.6033936 0.8640137 -6.2385254 2.592041c-1.6351929 1.728035 -2.4528198 3.981987 -2.4528198 6.7618637c0 3.45607 1.5818481 5.935417 4.7456055 7.4380493l53.561096 22.680412l-53.561096 22.68042c-1.5285645 0.676178 -2.7015991 1.6810608 -3.519226 3.0146637c-0.8175659 1.3335876 -1.2263794 2.8080597 -1.2263794 4.4233856c0 2.7610931 0.8442993 5.043213 2.5327759 6.8463745c1.7062988 1.7843933 3.812439 2.6765747 6.3185425 2.6765747c1.421875 0 2.9504395 -0.3474884 4.5856323 -1.04245l57.826782 -24.934372c2.7194214 -1.2772369 4.8433228 -3.089798 6.371887 -5.437668c1.5285645 -2.3666458 2.2928467 -5.108963 2.2928467 -8.226929c0 -3.005272 -0.7642822 -5.719406 -2.2928467 -8.14241c-1.5285645 -2.4229965 -3.6524658 -4.216774 -6.371887 -5.3813095l-57.826782 -24.906197c-1.6351929 -0.6949692 -3.217041 -1.04245 -4.7456055 -1.04245z"
              fill-rule="evenodd"/>
        <path fill="#000000" fill-opacity="0.0" d="m98.59814 46.216396l118.33071 0l0 125.13385l-118.33071 0z"
              fill-rule="evenodd"/>
        <path stroke="#000000" stroke-width="12.0" stroke-linejoin="round" stroke-linecap="butt"
              d="m98.59814 46.216396l118.33071 0l0 125.13385l-118.33071 0z" fill-rule="evenodd"/>
        <path fill="#ffffff" d="m226.95425 38.906757l31.811035 33.606297l-54.897644 58.015755l-31.81102 -33.6063z"
              fill-rule="evenodd"/>
        <path fill="#ff0000"
              d="m107.606804 104.52035l20.290245 -21.440086l35.121857 37.10569l78.6389 -83.095345l19.523804 20.62659l-98.92914 104.53543z"
              fill-rule="evenodd"/>
    </g>
</svg>